# xmcd CD database file
#
# Track frame offsets:
#	182
#	13135
#	25060
#	37427
#	51965
#	66702
#	79595
#	88342
#	102122
#	117402
#	129052
#	145077
#	156695
#	177192
#	190347
#	200122
#	210617
#	221470
#	231922
#	243227
#	255022
#
# Disc length: 3509 seconds
#
# Revision: 0
# Processed by: cddbd v1.5.2PL0 Copyright (c) Steve Scherf et al.
# Submitted via: CDex 1.70beta2
#
DISCID=350db315
DTITLE=Various Artist - Čundrcountry show 2
DYEAR=1900
DGENRE=Country
TTITLE0=Embéčko
TTITLE1=Prokletej bar
TTITLE2=Květuška
TTITLE3=Denver
TTITLE4=Kůň mi dupnul na palec
TTITLE5=Nashvile
TTITLE6=Prapředci
TTITLE7=Holka - Nerez
TTITLE8=Green green
TTITLE9=Hanáci
TTITLE10=Pár havraních copánků
TTITLE11=Číšnická
TTITLE12=Pastor z Little Fort
TTITLE13=Alice
TTITLE14=Padá, padá sníh
TTITLE15=Můj koníčku
TTITLE16=Už jsem taky holá lebka
TTITLE17=Já mám rád Kateřinu
TTITLE18=Hi Jolly
TTITLE19=U barelhauzu
TTITLE20=Malý Jack
EXTD=
EXTT0=
EXTT1=
EXTT2=
EXTT3=
EXTT4=
EXTT5=
EXTT6=
EXTT7=
EXTT8=
EXTT9=
EXTT10=
EXTT11=
EXTT12=
EXTT13=
EXTT14=
EXTT15=
EXTT16=
EXTT17=
EXTT18=
EXTT19=
EXTT20=
PLAYORDER=
